<svg width="800" height="800" version="1.1" viewBox="0 0 211.67 211.67" xml:space="preserve" xmlns="http://www.w3.org/2000/svg"><g transform="matrix(1.3662 0 0 1.3662 -30.242 -10.589)"><path d="m113.94 139.04c-2.5899-0.85062-4.6067-2.6478-5.8168-5.1835l-0.78301-1.6406-1.3964 0.10433c-0.76804 0.0574-2.69 0.18652-4.271 0.28696l-2.8746 0.18263-0.50214 1.3482c-1.0367 2.7834-3.5711 4.4653-6.7133 4.4552-4.0186-0.0129-6.7572-2.8408-6.7411-6.9612 0.01085-2.7793 1.3947-4.8579 4.0952-6.1513 2.0446-0.97922 3.6213-1.0032 5.5631-0.0846 1.52 0.71908 3.4663 2.6747 3.7376 3.7556 0.15186 0.60506 0.24028 0.6314 1.6476 0.49084 0.81793-0.0817 2.6778-0.2199 4.133-0.30714 3.4393-0.20617 3.483-0.22234 3.6981-1.3687 0.59584-3.1761 3.3048-5.8901 6.7594-6.7718l1.4488-0.36979 0.84587-5.3948c0.46523-2.9671 1.1041-6.8052 1.4197-8.5291l0.57384-3.1343 1.2261 0.1795c0.67436 0.0987 1.3253 0.27482 1.4465 0.39131 0.1212 0.1165-0.32529 3.6559-0.99218 7.8653-0.6669 4.2094-1.2116 7.9441-1.2104 8.2992 2e-3 0.47829 0.27197 0.79215 1.0427 1.2105l1.0405 0.56478 8.9669-11.046-0.39127-1.127c-0.89202-2.5693 0.90142-5.8087 3.631-6.5586 1.4578-0.40048 3.5648-0.0389 4.711 0.80857 1.8064 1.3355 2.5647 4.3445 1.5698 6.229-0.42477 0.80461-0.41944 0.82306 0.56933 1.9711l0.99811 1.1589 1.4255-0.59239c0.784-0.32582 2.0928-0.66215 2.9084-0.7474l1.483-0.155 4.0309-9.0171-0.658-0.782c-1.0307-1.2249-1.4852-2.5576-1.5082-4.4223-0.0267-2.1665 0.63978-3.7318 2.1796-5.1189 1.468-1.3224 2.5638-1.7602 4.4058-1.7602 2.1007 0 3.3835 0.45269 4.7892 1.69 1.5682 1.3804 2.1821 2.745 2.1895 4.867 9e-3 2.5634-1.1042 4.6756-3.1923 6.0575-0.81986 0.54255-1.4915 0.72147-3.189 0.84948l-2.1504 0.16217-1.6767 3.6702c-2.21 4.8373-2.1404 4.4785-0.97555 5.034 4.1651 1.9862 6.2997 6.9758 4.9432 11.555-1.25 4.2194-4.4235 6.793-8.7058 7.0601-4.0865 0.25495-7.3716-1.4168-9.6539-4.9128l-0.39687-0.60793-5.4639 1.8437c-3.0051 1.0141-5.6979 1.969-5.9839 2.122-0.31341 0.16774-0.58607 0.67635-0.68625 1.2801-0.26177 1.5776-1.3472 3.6351-2.5546 4.8426-1.6436 1.6436-3.6345 2.4614-6.2134 2.5521-1.1642 0.041-2.4143-0.0232-2.7781-0.14273zm-20.913-4.1602c0.63051-0.25227 1.2747-0.77314 1.5929-1.288 1.7977-2.9088-1.4493-6.3446-4.5034-4.7653-0.81301 0.42043-1.8415 2.1059-1.8415 3.0177 0 1.0864 0.87173 2.384 1.9651 2.9253 1.2997 0.64334 1.4407 0.64892 2.787 0.11026zm25.327-0.12242c1.5825-0.59792 3.2406-2.8833 3.2511-4.4811 0.0129-1.9638-1.4066-4.2313-3.0889-4.9342-2.407-1.0057-5.7492 0.44649-6.6765 2.9009-0.66223 1.7528-0.0908 4.3422 1.2196 5.5273 1.2555 1.1353 3.6974 1.5906 5.2947 0.98709zm30.714-7.5364c3.332-1.3922 4.4235-5.6461 2.1549-8.3983-1.9458-2.3606-5.3144-2.6864-7.8657-0.76077-2.4317 1.8354-2.5733 6.0616-0.27291 8.1474 1.5748 1.428 4.0044 1.8388 5.9838 1.0117zm-18.25-1.8146c2.7225-0.9322 5.138-1.7705 5.3676-1.863 0.29409-0.11835 0.49979-0.79053 0.69548-2.2727 0.17453-1.3219 0.55113-2.6447 1.0126-3.5569l0.7348-1.4523-1.1657-1.2608c-1.092-1.1812-1.2493-1.2608-2.4886-1.2608-0.72761 0-1.564-0.0888-1.8586-0.19734-0.45932-0.16921-1.1004 0.50427-4.4979 4.725-2.1792 2.7073-4.1223 5.1426-4.3179 5.4118-0.30756 0.42331-0.25867 0.68762 0.36178 1.9558 0.39457 0.80648 0.82741 1.4663 0.96185 1.4663 0.13445 0 2.472-0.76271 5.1945-1.6949zm5.1789-15.522c0.86165-0.67778 0.9108-1.7036 0.12185-2.5434-0.72018-0.7666-1.4624-0.77882-2.2519-0.0371-0.83583 0.78522-0.7997 1.8848 0.0848 2.5805 0.38343 0.3016 0.84362 0.54837 1.0227 0.54837 0.17903 0 0.63922-0.24677 1.0226-0.54837zm22.165-9.7247c1.5323-1.715 1.0942-4.1635-0.92432-5.1662-1.328-0.65969-2.6399-0.40028-3.7895 0.7493-0.71289 0.71289-0.87871 1.0859-0.87871 1.9766 0 2.2939 1.3145 3.5356 3.5562 3.3592 1.0558-0.0831 1.4474-0.25982 2.0363-0.91894zm-91.925 36.728c-0.40709-0.12228-1.3162-0.59193-2.0201-1.0437-2.2214-1.4255-3.4877-3.8022-3.5733-6.7068l-0.05309-1.8006-6.3179-4.2569c-6.1885-4.1697-6.3344-4.2502-7.1254-3.9287-2.4655 1.002-4.7079 0.95735-6.9523-0.13832-3.7593-1.8353-5.1385-6.5081-3.0303-10.267 0.8577-1.5291 2.7679-3.1206 4.2944-3.578 0.56206-0.1684 1.0973-0.42807 1.1893-0.57705 0.15417-0.24945 0.33791-2.7398 0.7717-10.459l0.16518-2.9395-0.77088-0.31931c-2.6324-1.0904-3.9772-4.8171-2.728-7.5599 0.68025-1.4936 2.4294-2.9962 3.7301-3.2042l1.0553-0.16875 1.9772-6.1158c1.7844-5.5195 1.9334-6.1394 1.5277-6.3583-0.994-0.53614-2.4151-2.3284-2.9234-3.6868-0.97652-2.61-0.28062-5.5242 1.8017-7.5451 1.4858-1.4419 3.2304-2.004 5.6746-1.8283l1.8767 0.13492 12.7-11.742 0.14855-2.5089c0.18221-3.0774 0.79383-4.4886 2.6805-6.1849 3.2946-2.9621 8.2737-2.5648 11.397 0.90956l1.2049 1.3402 4.7197-1.4142c2.5958-0.7778 5.7665-1.7008 7.0459-2.0511 2.0341-0.55692 2.3445-0.7202 2.4725-1.3004 0.64518-2.9248 2.4642-5.1599 4.8421-5.9497 1.8499-0.61445 4.722-0.45411 6.2934 0.35134 2.6641 1.3656 4.1139 3.744 4.1371 6.7869 0.025 3.2811-1.863 6.109-4.8577 7.2759l-1.1906 0.46393-0.0768 1.9878-0.0767 1.9878 1.3191 0.81166c0.78875 0.48533 1.5642 1.2409 1.9288 1.8793l0.60972 1.0676 15.089 4e-3 0.88393-1.8972c1.1657-2.502 2.9961-4.3215 5.6839-5.6499 1.8242-0.90159 2.3492-1.0367 4.4096-1.1352 1.8566-0.08877 2.7179 0.0033 4.1777 0.44673 5.6253 1.7086 9.1104 7.5285 8.0157 13.385-1.374 7.3501-8.5692 11.371-15.81 8.835l-1.627-0.56989-0.78598 0.89943c-0.4323 0.49468-1.3411 1.5517-2.0197 2.349s-1.3792 1.531-1.5571 1.6305c-0.5573 0.31188-2.0261-0.49415-2.3229-1.2747-0.36585-0.96225-0.0954-1.5253 1.8797-3.9131 0.86771-1.049 1.5776-1.9844 1.5776-2.0786s-0.35584-0.74966-0.79075-1.4565c-0.98742-1.6048-1.5667-3.2129-1.8038-5.0073l-0.18359-1.3897-14.776-0.061-0.60771 1.1958c-1.1868 2.3352-3.3003 3.4324-5.9588 3.0933-2.806-0.35788-4.906-3.031-4.6649-5.9379 0.16575-1.9987 1.2788-3.7472 2.9245-4.5941l1.2544-0.64554v-4.1198l-0.77337-0.16986c-1.335-0.29322-3.0263-1.6278-3.9895-3.1481-0.50914-0.80364-1.0637-1.4669-1.2323-1.4739-0.3993-0.01656-5.9346 1.5805-10.177 2.9362l-3.3394 1.0672-0.15173 1.2811c-0.2017 1.7031-1.0299 3.2941-2.5074 4.8169-0.66741 0.68787-1.128 1.3361-1.0236 1.4406 0.23618 0.23618-2.5302 1.1246-2.7958 0.89786-0.38627-0.32983-2.2824 0.03026-2.4493 0.46514-0.09081 0.23665-1.0501 4.5409-2.1317 9.5651s-2.0936 9.587-2.2489 10.14c-0.30924 1.1006-1.5058 2.0352-2.6081 2.0369-0.34914 5.44e-4 -2.6362-1.0706-5.0824-2.3803s-4.5197-2.3812-4.6078-2.3812c-0.08812 0-0.43782 0.3299-0.7771 0.73312-0.7698 0.91486-2.752 1.9227-4.1504 2.1102-1.2535 0.16813-1.0156-0.32341-3.255 6.7253l-1.653 5.203 1.122 0.93791c1.2772 1.0676 1.9728 2.7093 1.9728 4.6561 0 1.8549-1.315 3.8883-3.0782 4.7598l-1.3584 0.67142-0.17086 2.249c-0.94281 12.409-1.0194 11.137 0.72986 12.125 1.3019 0.73473 2.2847 1.6698 2.9516 2.8082 0.24685 0.42138 0.35026 0.4149 1.5433-0.0968 1.5408-0.66092 1.4994-0.65822 1.4994-0.0981 0 0.24773 0.3587 0.82051 0.79711 1.2728l0.79711 0.82241-1.5247 0.61958c-2.0239 0.82241-2.0979 0.89516-2.2458 2.2074-0.07011 0.62198-0.34233 1.5837-0.60495 2.1371-0.27517 0.57987-0.37381 1.0798-0.2328 1.18 0.13458 0.0956 2.7815 1.8776 5.882 3.96l5.6373 3.7862 1.191-1.0978c1.6721-1.5413 3.2863-2.2087 5.385-2.2266 0.94589-8e-3 2.0314 0.0729 2.4122 0.17999 0.68068 0.19135 0.73912 0.0958 3.4396-5.6224l2.7471-5.8171 1.3229 0.1652c0.7276 0.0909 1.4293 0.26276 1.5594 0.38201 0.13558 0.12432-0.07789 0.87223-0.50036 1.7531-1.914 3.9907-4.8955 10.49-4.8955 10.672 0 0.11183 0.41283 0.8168 0.9174 1.5666 1.1155 1.6577 1.4604 2.8196 1.4624 4.9266 0.0022 2.4302-0.63872 3.9674-2.3816 5.7122-1.1402 1.1414-1.8331 1.5979-2.9119 1.9182-1.5034 0.44648-4.1391 0.52142-5.367 0.1526zm4.8439-4.0317c1.4164-0.96397 1.9369-1.8738 2.0416-3.5683 0.07578-1.2264-0.0255-1.731-0.51742-2.5778-1.1264-1.9391-3.8745-2.8326-5.7419-1.867-1.7285 0.89382-2.8609 3.1896-2.5062 5.0807 0.19103 1.0183 1.6947 2.9046 2.6118 3.2763 1.1167 0.45269 3.1973 0.27869 4.1121-0.34387zm-25.264-17.136c1.8884-1.1671 2.2872-4.2446 0.75851-5.8527-0.92302-0.97096-1.9794-1.5536-2.8026-1.5457-1.0845 0.0104-2.8256 0.98753-3.3801 1.897-0.6393 1.0486-0.71162 3.0748-0.14862 4.1635 0.91754 1.7743 3.7618 2.4571 5.5729 1.3378zm0.49252-28.03c0.87705-0.33345 1.5669-1.6825 1.3546-2.6491-0.2151-0.97932-0.91266-1.5835-2.0394-1.7663-1.2066-0.19581-2.2823 0.697-2.5019 2.0767-0.13478 0.84667-0.04639 1.0895 0.65004 1.7859 0.84547 0.84547 1.4312 0.97311 2.5366 0.55281zm21.696-23.493c0.24725-1.2733 0.85468-4.1606 1.3498-6.4161 1.687-7.6848 2.2951-10.629 2.2045-10.672-0.04979-0.02393-0.52812-0.44648-1.063-0.93899l-0.97243-0.89548-2.7168 2.483c-2.4029 2.1961-6.9111 6.3853-8.6501 8.0381l-0.61763 0.58699 0.7267 1.3898c0.44326 0.84772 0.78736 2.0119 0.88222 2.9848l0.15551 1.595 3.8365 2.0726c2.1101 1.1399 3.9667 2.076 4.1258 2.0801 0.15916 0.0042 0.49168-1.0342 0.73893-2.3075zm-13.414-0.68966c0.74911-0.81742 0.87631-1.1494 0.87631-2.2869 0-1.1353-0.12761-1.4699-0.86898-2.2789-1.6589-1.8102-4.5421-1.3963-5.5851 0.80172-0.5399 1.1377-0.53603 1.8248 0.0168 2.9898 0.6482 1.366 1.7769 1.9819 3.3782 1.8435 1.0905-0.09428 1.4514-0.27105 2.1828-1.0692zm85.146-5.9794c2.2667-0.9828 4.0937-3.7716 4.0984-6.256 5e-3 -2.4844-1.0761-4.4697-3.2355-5.9434-1.0572-0.7214-1.5581-0.87548-3.186-0.97994-2.4814-0.15924-4.2324 0.52981-5.7619 2.2674-3.6446 4.1405-1.4671 10.233 4.1162 11.517 0.84499 0.19427 2.8201-0.10666 3.9688-0.6047zm-33.739-5.7754c0.89639-0.72586 0.85102-2.3251-0.0889-3.1336-1.5018-1.2918-3.6105-0.27076-3.6105 1.7483 0 1.5088 2.4254 2.417 3.6994 1.3853zm-28.571-8.1266c2.7126-1.4027 2.969-5.2729 0.46755-7.057-1.1655-0.83126-3.531-0.86761-4.5984-0.07066-1.2502 0.93339-1.7698 1.8584-1.8799 3.3461-0.12179 1.6465 0.46604 2.8117 1.8417 3.6504 1.0423 0.63552 3.0703 0.69931 4.1691 0.13114zm29.372-7.3425c1.303-0.88682 1.9095-1.8632 2.0422-3.2876 0.13265-1.4238-0.47151-2.6003-1.8659-3.6334-1.0359-0.76755-3.2909-0.76755-4.3268 0-1.9866 1.472-2.5327 3.8719-1.2954 5.6927 1.2274 1.8062 3.7581 2.377 5.4459 1.2283zm-42.215 79.051c-1.927-2.0432-3.5531-6.522-4.1114-11.324-1.5646-13.458 5.7198-27.944 18.227-36.246 7.7354-5.1349 17.984-7.9913 25.369-7.0706 7.4399 0.92756 12.36 3.2354 16.796 7.8785 3.4249 3.5848 5.3988 6.9081 8.1272 13.683 1.9969 4.9586 3.2235 6.4457 5.797 7.0285 1.2978 0.29391 2.532-0.165 3.5884-1.3343 1.9617-2.1713 2.2283-5.8166 0.83247-11.383-0.38316-1.528-0.76199-3.552-0.84183-4.4979-0.12648-1.4983-0.0708-1.8135 0.43263-2.4474 0.5095-0.6416 0.75535-0.72714 2.08-0.72369 3.764 0.0098 7.7199 1.7262 7.7199 3.3495 0 0.46913-0.14743 0.61534-0.62045 0.61534-1.4768 0-1.8893 1.9386-1.0979 5.1594 0.63943 2.6022 0.78252 7.0905 0.2983 9.357-0.86426 4.0455-3.5438 7.993-6.7405 9.9301-2.1562 1.3066-4.4764 2.0047-7.2672 2.1866-7.8354 0.51069-16.876-4.7985-20.579-12.085-0.47214-0.92912-0.91335-2.2608-0.98047-2.9592-0.0671-0.69843-0.23141-1.2699-0.36511-1.2699s-0.5341 0.62508-0.88979 1.3891c-0.50646 1.0878-0.64726 1.826-0.64929 3.404-2e-3 1.7867 0.10515 2.2303 0.94845 3.916 0.52306 1.0455 1.1779 2.0427 1.4552 2.2159 0.84941 0.53047 0.5591 0.75909-0.35572 0.28013-0.52142-0.27299-1.7085-0.49646-3.0157-0.56772-1.8811-0.10255-2.3378-0.03422-3.584 0.5363-1.9747 0.90406-3.2374 2.0917-4.1035 3.8595-0.68165 1.3914-0.73636 1.7398-0.73462 4.6783 2e-3 3.6926 0.28991 4.863 2.2919 9.3224 1.3583 3.0257 1.4537 3.7745 0.4806 3.7745-1.4025 0-3.7358-1.4574-8.8273-5.5138-7.1876-5.7263-11.851-7.9537-16.764-8.0063-3.492-0.0374-5.5731 0.76605-8.0133 3.0936-2.33 2.2225-3.4274 4.9369-3.4332 8.4926-0.0017 1.0464-0.12794 1.9797-0.28047 2.074-0.15253 0.0943-0.6875-0.26351-1.1888-0.79507zm33.384-20.121c1.6416-0.80315 2.8404-2.2324 3.3029-3.9377 0.60212-2.2201-0.18843-5.5408-1.789-7.5149-0.48616-0.59958-0.4908-0.58182-0.4908 1.8758 0 2.2995-0.05856 2.5758-0.80001 3.7747-0.44 0.71146-1.3139 1.6544-1.9419 2.0955-1.0815 0.75952-1.2771 0.80175-3.6979 0.79855-2.1569-0.0029-2.7356-0.09873-3.7068-0.61411-1.5413-0.818-3.3656-2.5337-4.1903-3.9408-0.83042-1.417-1.6704-4.0516-1.6704-5.2392 0-0.48777-0.11906-0.96044-0.26458-1.0504-0.40713-0.25162-0.31836 3.7431 0.11976 5.3892 0.63591 2.3892 1.7238 4.1959 3.5818 5.9487 2.6752 2.5237 4.9181 3.4134 8.1545 3.235 1.4053-0.0775 2.3331-0.30181 3.3927-0.82023zm38.462-1.5709c0.65485-0.23273 1.4579-0.62806 1.7846-0.87852 0.5743-0.44034 0.52187-0.4525-1.5875-0.36828-5.5546 0.22177-11.066-2.3924-17.234-8.1736-2.3404-2.1939-2.4083-2.0423-0.63018 1.4063 2.0093 3.897 6.968 7.6545 11.058 8.3793 1.9152 0.3394 5.1253 0.16202 6.6087-0.36517zm-28.644-14.855c0.91125-0.66405 1.923-2.6007 1.9153-3.6662-3e-3 -0.44211-0.22836-1.2939-0.50037-1.8929-2.0292-4.4684-8.4694-3.0188-8.4853 1.9098-5e-3 1.5717 0.67578 2.7801 2.1186 3.7602 0.78017 0.52997 1.1703 0.60936 2.5705 0.5231 1.1096-0.06835 1.8902-0.27618 2.3812-0.63398zm37.202-7.5263c0.55935-0.1593 0.9526-0.35404 0.87389-0.43274-0.0787-0.07871-1.1317-0.28515-2.3399-0.45875-3.3152-0.47634-4.2269-0.14327-2.5275 0.92333 0.90879 0.57039 1.9069 0.56244 3.9936-0.03183zm12.323 6.032c-2.4866-1.0561-4.1893-4.0713-3.8616-6.8383 0.65629-5.5413 7.3483-7.7166 11.211-3.6443 2.9244 3.0827 1.7982 8.5125-2.1037 10.142-1.8265 0.76296-3.9296 0.89934-5.2461 0.3402zm4.2303-3.757c1.5907-0.82257 1.7311-3.2561 0.25942-4.4944-2.3006-1.9358-5.7763 0.38675-4.6419 3.1018 0.21007 0.50278 0.65915 1.1083 0.99794 1.3456 0.76366 0.53489 2.3972 0.5576 3.3845 0.04706z" fill="#fff"/></g></svg>
