<svg width="800" height="800" version="1.1" viewBox="0 0 211.67 211.67" xml:space="preserve" xmlns="http://www.w3.org/2000/svg"><g transform="matrix(1.3662 0 0 1.3662 -30.242 -10.589)"><path d="m115.73 139.62c0.32742-0.0631 0.8632-0.0631 1.1906 0 0.32743 0.0631 0.0595 0.11466-0.59531 0.11466-0.65484 0-0.92273-0.0516-0.59531-0.11466zm-45.707-0.97625c-4.6171-0.92596-5.999-1.4226-9.8993-3.5574-4.1243-2.2574-6.9823-4.5586-10.56-8.5024-1.5507-1.7096-4.6765-6.0021-4.6765-6.422 0-0.0764 0.32742-0.19836 0.7276-0.271 0.40018-0.0726 1.0848-0.27879 1.5214-0.45813 0.77268-0.31741 0.94824-0.22254 6.6146 3.5746 3.2015 2.1454 5.9849 4.0542 6.1855 4.2418 0.22182 0.20749 0.38774 1.0065 0.42361 2.0399 0.19544 5.6307 5.5622 9.3659 11.131 7.747 1.2456-0.36211 1.8368-0.75077 3.1616-2.0786 1.8834-1.8877 2.5147-3.3571 2.5125-5.8475-0.0019-2.107-0.34684-3.269-1.4624-4.9266-0.50457-0.74978-0.9174-1.4266-0.9174-1.504 0-0.36897 5.3645-11.873 5.6869-12.196 0.14005-0.14004 4.3119 2.3181 7.2115 4.2492l1.9182 1.2775 0.02219 1.381c0.01221 0.75955 0.1015 2.7142 0.19844 4.3436l0.17624 2.9626-1.2708 0.59495c-2.7121 1.2697-4.3031 3.9431-4.1039 6.896 0.13289 1.9697 0.76714 3.4076 2.0839 4.7244l0.96008 0.96009-1.7296-0.36255c-0.95126-0.1994-1.7772-0.41022-1.8355-0.46848-0.05826-0.0583-0.66055 0.13711-1.3384 0.43417-0.67787 0.29705-1.8278 0.71238-2.5554 0.92295-1.8395 0.53237-8.0128 0.68071-10.186 0.24477zm24.744-0.38819c1.8057-0.84172 2.8174-1.9064 3.6932-3.8866l0.60442-1.3667 3.6691-0.18413c2.018-0.10127 3.8667-0.24175 4.1082-0.31218 0.3179-0.0927 0.52422 0.12979 0.74738 0.806 0.49342 1.4951 2.5013 4.0041 3.8252 4.7799 0.66331 0.38873 1.206 0.74673 1.206 0.79556 0 0.0488-4.3756 0.0937-9.7234 0.0998l-9.7234 0.011zm29.095-2.2643c0.87278-1.1899 1.9725-3.7199 1.9818-4.5592 4e-3 -0.40032 0.26165-0.66066 0.86618-0.87663 3.4896-1.2467 10.86-3.7192 10.901-3.6572 0.96373 1.4221 1.4875 2.0618 2.2014 2.6886l0.87134 0.76505-2.0592 1.4465c-2.1516 1.5114-4.3946 2.6749-6.4439 3.3426-1.8189 0.59265-5.4194 1.2262-6.9687 1.2262-0.75518 0-1.5391 0.14883-1.7421 0.33073s-0.0267-0.13606 0.39183-0.70657zm-33.201-1.2443c-0.98706-0.39359-1.8039-1.2615-1.9916-2.1163-0.39689-1.807 1.1994-3.9364 2.951-3.9364 3.5007 0 4.5703 4.6625 1.3639 5.9454-1.1538 0.46166-1.4056 0.4733-2.3233 0.10735zm23.549-0.54549c-1.7068-0.87878-2.4303-2.2378-2.3164-4.351 0.10787-2.002 1.0137-3.3426 2.7892-4.128 5.3188-2.3528 9.1992 4.8662 4.4906 8.3542-1.1274 0.83512-3.4694 0.894-4.9634 0.12477zm-47.629-1.6046c-1.4565-0.99128-1.9628-1.8889-1.9628-3.4799 0-3.384 3.5825-5.5669 6.2195-3.7898 2.7579 1.8586 2.8524 5.708 0.18013 7.3373-1.2198 0.74374-3.2912 0.71219-4.4369-0.0676zm31.362-4.4569c-0.76404-1.2765-2.7657-2.9075-4.01-3.2673-0.31051-0.0898-0.55118-0.30846-0.53482-0.48592 0.01637-0.17746-0.06977-2.1681-0.19142-4.4237-0.17066-3.1644-0.33439-4.323-0.7169-5.0728-0.6309-1.2367-5.8089-4.941-9.3935-6.72-2.3787-1.1805-2.6783-1.2615-5.1012-1.3781-2.4402-0.1175-2.6133-0.0902-3.3285 0.52499-0.59802 0.5144-0.71904 0.79-0.58368 1.3293 0.18161 0.72357 1.4534 1.364 2.1658 1.0906 0.21418-0.0822 0.38348-0.0474 0.37621 0.0773-0.0073 0.12471-1.1718 2.6675-2.5879 5.6507-2.4367 5.1331-2.6098 5.4169-3.2279 5.2917-0.35926-0.0728-1.4271-0.12569-2.373-0.11762-2.0964 0.0179-3.7128 0.68524-5.3783 2.2205l-1.1843 1.0917-4.9869-3.3519c-2.7428-1.8435-5.3129-3.5814-5.7114-3.862-0.71692-0.50483-0.72015-0.52046-0.30736-1.4866 0.22945-0.53699 0.49596-1.4951 0.59225-2.129 0.17046-1.1224 0.21683-1.1685 1.7626-1.7538 0.87312-0.33064 2.0638-0.70537 2.6458-0.83274 1.2321-0.2696 1.2213-0.18635 0.52893-4.066-0.6011-3.3683-0.41391-10.703 0.35838-14.043 1.2195-5.2736 3.6657-11.051 6.3565-15.014 1.2733-1.875 1.3808-2.7555 0.41398-3.389-0.64011-0.41942-0.71503-0.4153-1.3891 0.0763-0.96671 0.70506-2.8951 3.6-4.6866 7.0356l-1.4831 2.8443h-4.6881l-0.30534-0.92518c-0.16794-0.50885-0.81045-1.3646-1.4278-1.9016l-1.1225-0.97644 1.275-3.9854c0.70122-2.1919 1.5252-4.775 1.8312-5.7401 0.54504-1.7195 0.57699-1.7575 1.5915-1.8936 1.2933-0.17347 3.0233-1.0507 4.0979-2.0781l0.82157-0.78541 4.4895 2.396c2.4692 1.3178 4.7784 2.3956 5.1316 2.395 0.80388-0.0012 2.236-0.85706 2.613-1.5615 0.15674-0.29287 0.58607-1.9363 0.95408-3.6522 0.368-1.7158 0.91248-4.2508 1.2099-5.6332 0.29746-1.3824 0.82092-3.8232 1.1632-5.424 1.3958-6.5271 1.1553-5.8948 2.2832-6.0024l0.99961-0.09533 2.005 4.9995c1.1027 2.7497 1.97 5.0269 1.9272 5.0605-0.0428 0.03354-0.91126 0.51638-1.9299 1.073-4.0656 2.2215-4.7966 2.9989-3.9846 4.2381 0.54547 0.83249 1.2986 0.81914 2.794-0.04952 4.9735-2.8892 9.6654-4.7386 14.42-5.6839 3.1488-0.62609 4.0079-0.9311 4.2264-1.5005 0.2512-0.65462-0.72348-1.7632-1.6306-1.8546-1.0128-0.10206-5.5596 0.82237-8.2949 1.6864-1.1632 0.36745-2.2131 0.60734-2.3333 0.5331-0.20564-0.12709-0.90076-1.8272-3.0385-7.4314l-0.90832-2.3812 1.0297-1.003c1.2538-1.2213 2.3056-3.2252 2.5222-4.8055 0.13901-1.0142 0.27405-1.2156 0.9869-1.4721 1.5699-0.56476 6.3933-2.0537 9.4156-2.9066l3.0335-0.856 0.4061 0.61989c1.3429 2.0499 2.1159 2.8005 3.6499 3.544l1.6375 0.79375 7e-3 1.9182c5e-3 1.4373-0.0829 1.9182-0.35048 1.9182-0.79017 0-2.5043 1.5843-3.179 2.9381-0.85068 1.7071-0.89829 3.3396-0.1458 4.9994 1.0636 2.3461 2.7175 3.4382 5.2612 3.474 2.6464 0.03725 4.7792-1.3719 5.588-3.6921l0.29021-0.83248 14.502 0.12456 4.3e-4 0.83632c6.4e-4 1.2521 0.88421 3.8486 1.8361 5.3956 0.46374 0.75367 0.7866 1.5053 0.71747 1.6703-0.0691 0.16497-0.92003 1.2469-1.8909 2.4043-1.5408 1.8369-1.7451 2.2046-1.6074 2.8931 0.20059 1.0029 0.77807 1.6394 1.8156 2.0011 0.88694 0.30919 0.66904 0.49535 4.5724-3.9066l0.81258-0.91638 1.5092 0.56465c8.3091 3.1088 16.939-3.4339 16.241-12.312l-0.12861-1.6347 1.9176 2.1994c1.0547 1.2097 2.6988 3.3741 3.6536 4.8097 1.7542 2.6378 4.1544 7.5344 4.1544 8.4754 0 0.34684-0.30716 0.622-0.95638 0.85676-1.2431 0.44952-2.9152 1.9723-3.5656 3.2473-1.1539 2.2619-0.86554 5.1788 0.71696 7.2519 0.49205 0.64463 0.89464 1.2286 0.89464 1.2977 0 0.0691-0.76502 1.7052-1.7 3.6357-1.3812 2.8517-1.7239 3.8205-1.8271 5.1652-0.10158 1.323-0.0328 1.7716 0.34297 2.2356 0.46056 0.56877 0.4848 0.57081 1.2017 0.10107 0.52901-0.34662 1.3607-1.7903 3.0026-5.2122 2.2256-4.6384 2.2874-4.7328 3.0969-4.7328 0.45431 0 1.4049-0.17423 2.1125-0.38717s1.3012-0.36177 1.3192-0.33073c0.018 0.03104-0.17963 1.5447-0.43921 3.3637-0.49929 3.4989-1.3581 7.5737-1.9983 9.4814-0.21171 0.63085-0.40011 1.3485-0.41866 1.5948-0.0307 0.40818-0.12859 0.40065-1.1063-0.0851-1.6614-0.82538-4.5592-0.8889-6.1184-0.13409-2.6975 1.3058-4.1944 3.6837-4.1584 6.6055 0.0229 1.8577 0.47746 3.1973 1.4954 4.407l0.64518 0.76676-3.8545 8.7168-1.4201 0.20054c-0.78107 0.11029-2.0588 0.45704-2.8393 0.77055l-1.4192 0.57002-0.86872-1.0347c-0.84769-1.0097-0.85856-1.054-0.44927-1.8289 0.9871-1.8689 0.20848-4.9471-1.5959-6.3093-3.2778-2.4745-7.8861-0.78154-8.9635 3.2929-0.26785 1.013-0.25357 1.4249 0.0851 2.4535l0.40697 1.2362-3.6114 4.4256c-1.9863 2.4341-3.94 4.8597-4.3417 5.3902l-0.73027 0.96455-1.9879-1.0889 0.98938-6.241c1.7408-10.981 1.5393-10.077 2.2472-10.077 0.59072 0 1.6824-0.82021 1.6824-1.264 0-0.59753-0.96156-1.4066-2.2405-1.885-2.9125-1.0897-2.6423-1.249-3.3992 2.0028-0.36692 1.5764-0.87778 4.2353-1.1353 5.9088-0.25747 1.6735-0.77322 4.8728-1.1461 7.1095l-0.67797 4.0668-1.5182 0.46765c-3.4613 1.0662-5.6675 3.2936-6.6583 6.7224l-0.31223 1.0805-2.1056 0.1649c-1.1581 0.0907-3.0582 0.23239-4.2223 0.3149l-2.1167 0.15zm13.734-11.503c0.64822-0.64822 0.50221-1.5289-0.6615-3.9899-1.5015-3.1753-2.9357-7.5921-3.0922-9.5227-0.12395-1.5291-0.0907-1.6522 0.56173-2.0797 0.50234-0.32914 0.9675-0.40708 1.6876-0.28277 2.776 0.47923 2.8408 0.47742 3.3578-0.0939 1.1228-1.2406-0.78938-2.6213-3.9466-2.8497-1.6428-0.11882-1.9606-0.06259-2.7584 0.48808-2.0808 1.4362-2.5558 3.3438-1.7477 7.0182 0.68056 3.0945 3.5207 10.115 4.5538 11.257 0.52734 0.58271 1.4922 0.60894 2.0455 0.0556zm-45.351-2.5932c0.0122-3.557 1.0717-6.2366 3.2991-8.343 4.0572-3.8371 9.5937-4.0692 16.283-0.68244 2.0927 1.0595 4.603 2.8071 9.2389 6.4318 4.4296 3.4634 6.8828 4.9041 8.1116 4.7638 1.1324-0.1293 1.0817-0.81238-0.2777-3.7412-1.9928-4.2936-2.3987-5.9186-2.392-9.5752 4e-3 -2.4169 0.11413-3.4175 0.45927-4.1905 0.78209-1.7517 1.9862-3.0131 3.6879-3.8635 2.04-1.0194 4.4177-1.1097 6.7032-0.25453 0.81587 0.30525 1.5517 0.48674 1.6351 0.4033 0.0834-0.08344-0.2369-0.54155-0.71186-1.018-0.47496-0.47648-1.2062-1.5807-1.625-2.4538-0.97921-2.0416-1.0633-4.8788-0.19994-6.7469l0.55025-1.1906 0.3731 1.4225c0.67799 2.5849 2.183 5.0233 4.6 7.4531 5.0073 5.0337 11.008 7.6252 16.946 7.3182 6.6909-0.34596 11.605-4.0597 13.958-10.549 0.63654-1.7551 0.70208-2.282 0.68572-5.5125-0.0123-2.4222-0.16783-4.2106-0.48334-5.5562-0.52202-2.2265-0.57877-4.1134-0.13962-4.6426 0.16117-0.1942 0.61073-0.38992 0.99901-0.43494 0.83159-0.09642 1.0531-0.78202 0.55398-1.7146-0.68784-1.2852-4.7972-2.7328-7.7579-2.7328-1.1665 0-1.525 0.11888-2.1036 0.69754-0.95707 0.95708-0.91815 2.2044 0.22654 7.2599 1.3322 5.8834 1.1657 9.0324-0.58752 11.116-1.4189 1.6863-3.0711 1.8809-5.2648 0.62012-1.4146-0.81304-2.3519-2.3327-4.0687-6.5967-2.7258-6.7699-4.959-10.359-8.6748-13.941-5.3656-5.1725-11.114-7.3593-19.338-7.3574-4.3847 1e-3 -7.3067 0.48053-11.54 1.8937-11.319 3.7786-20.058 11.166-25.216 21.318-4.1871 8.2408-5.3194 17.049-3.2064 24.942 1.1115 4.152 3.888 8.491 4.8974 7.6532 0.25601-0.21247 0.3752-0.90178 0.37964-2.1955zm24.488-18.698c-4.5802-1.6215-8.131-6.4477-8.0701-10.969l0.01427-1.0583 0.38388 1.4275c0.81032 3.0133 2.8272 5.6121 5.4728 7.0521 1.6095 0.87602 4.7516 1.1964 6.3996 0.6525 2.4101-0.7954 4.0906-3.2283 4.3524-6.301l0.17361-2.0373 0.77938 1.4552c0.68671 1.2822 0.78014 1.725 0.78572 3.7237 6e-3 2.0699-0.0639 2.3823-0.79622 3.5678-1.1358 1.8387-3.0865 2.8157-5.8823 2.9459-1.5839 0.07376-2.4004-0.03005-3.6131-0.45934zm39.005-1.6063c-2.3245-0.37214-5.4821-2.0847-7.7517-4.2043-1.5986-1.4929-2.2328-2.3328-3.2474-4.3005l-1.2608-2.4452 2.2189 2.0842c5.4969 5.163 10.975 7.8051 16.259 7.8412 1.4747 0.01006 1.7503 0.07175 1.3526 0.30276-1.5744 0.9144-4.5784 1.2009-7.5703 0.72188zm-26.924-15.05c-3.3524-2.044-2.0979-7.4443 1.8243-7.8528 2.3637-0.24622 4.7266 1.8932 4.7266 4.2795 0 1.2898-1.0586 3.109-2.1167 3.6376-1.2623 0.63057-3.344 0.60038-4.4342-0.06431zm38.301-7.6116-0.92604-0.43742 1.0583-0.09833c1.5102-0.14032 4.1255 0.21347 3.4396 0.4653-1.2872 0.47255-2.6632 0.49969-3.5719 0.07045zm3.1771 55.715c-3.7281-1.9205-3.7013-7.186 0.046-9.0533 2.5995-1.2954 5.3354-0.64011 6.9605 1.6672 0.66838 0.94895 0.7877 1.3611 0.77005 2.6599-0.0416 3.0618-1.9331 5.0695-4.9399 5.2433-1.3289 0.0768-1.8784-0.0233-2.8367-0.51698zm-19.54-1.2939c-0.41404-0.88251-0.5361-1.4282-0.3675-1.6428 0.13885-0.17676 1.8466-2.2921 3.795-4.7007 1.9484-2.4086 3.7214-4.6493 3.9399-4.9793 0.35367-0.53396 0.48402-0.56712 1.1837-0.30112 0.43243 0.16442 1.2329 0.26668 1.7789 0.22726 0.79456-0.0574 1.1569 0.0846 1.8157 0.71165 1.3284 1.2644 1.3812 1.5174 0.62897 3.0151-0.67255 1.339-1.315 4.2964-1.0713 4.9315 0.0704 0.1835-0.0728 0.41421-0.31829 0.5127-1.1271 0.45221-10.37 3.5677-10.556 3.558-0.11514-6e-3 -0.48833-0.60548-0.82931-1.3323zm-82.745-9.7468c-1.9232-0.82832-2.6125-3.5188-1.4055-5.486 0.51078-0.8325 2.1079-1.6803 3.1654-1.6803 0.80217 0 1.9482 0.67141 2.7281 1.5983 0.56166 0.6675 0.69297 1.0962 0.69297 2.2624 0 1.2619-0.10847 1.5572-0.88245 2.4017-0.7737 0.84425-1.059 0.97391-2.3151 1.0521-0.78796 0.049-1.6805-0.0176-1.9834-0.14805zm111.78-0.97882c-0.19491-0.23486-0.97817-0.77906-1.7406-1.2093l-1.3862-0.78232 0.67597-1.5026c0.37179-0.82646 1.161-2.604 1.7538-3.95l1.0778-2.4474h1.5203c0.83615 0 1.7204-0.0768 1.965-0.17065 0.37174-0.14265 0.39832-0.0884 0.162 0.33073-0.1555 0.27576-0.75636 1.6325-1.3352 3.0149s-1.4873 3.3245-2.0188 4.3157c-0.92789 1.7307-0.94781 1.8225-0.50202 2.3151 0.2553 0.28211 0.40079 0.51293 0.32329 0.51293s-0.30037-0.19216-0.49529-0.42701zm-118.18-2.3511c0.0029-0.58209 0.05712-0.78906 0.12041-0.45994 0.06329 0.32912 0.06088 0.80537-0.0053 1.0583-0.06622 0.25297-0.118-0.0163-0.11507-0.59839zm98.417-2.6608c-1.1261-0.78876-0.47364-2.7631 0.91314-2.7631 1.3045 0 1.9009 2.0068 0.8212 2.7631-0.32342 0.22653-0.71365 0.41188-0.86717 0.41188-0.15353 0-0.54375-0.18535-0.86717-0.41188zm-83.667-1.4178c0-0.5616-2.1034-2.5819-3.2056-3.0789l-1.1004-0.49621 0.1729-2.7877c0.5005-8.0694 0.72005-10.469 0.96545-10.551 1.0115-0.33857 2.8651-1.9333 3.4317-2.9524l0.66199-1.1906 3.5317 0.15556-0.48786 1.7743c-1.0685 3.8862-1.5893 7.7279-1.5663 11.555 0.01228 2.0424 0.10748 4.3948 0.21155 5.2274l0.18923 1.5138-1.0714 0.43342c-0.5893 0.23838-1.2203 0.49262-1.4022 0.56498-0.1819 0.0724-0.33073-3e-3 -0.33073-0.16723zm-12.099-1.763 0.73368-0.81458-0.20779-4.3448c-0.22891-4.7863 0.18195-17.884 0.47929-15.279 0.22953 2.0108 1.257 3.7182 2.7718 4.6059l1.1893 0.697-0.12811 1.8897c-0.07046 1.0393-0.1955 3.4375-0.27787 5.3293-0.24956 5.7317-0.2817 5.8737-1.4145 6.2449-1.1421 0.37431-1.9967 0.87471-3.0858 1.8069l-0.79375 0.67941zm122.17-3.3864c0-0.0549 0.20836-0.2633 0.46302-0.46302 0.41964-0.3291 0.429-0.31975 0.0999 0.0999-0.34564 0.44073-0.56291 0.58089-0.56291 0.36312zm-6.8064-3.214c-0.87843-0.87843-0.92498-1.012-0.80127-2.2995 0.15141-1.5757 0.92959-2.4535 2.4236-2.7338 1.7556-0.32935 3.5966 1.228 3.5966 3.0425 0 1.5891-1.5156 2.9234-3.3206 2.9234-0.75211 0-1.1719-0.20623-1.8983-0.93262zm9.2294-1.1841c0-0.3638 0.0601-0.51263 0.13345-0.33073 0.0734 0.1819 0.0734 0.47956 0 0.66146s-0.13345 0.03307-0.13345-0.33073zm-0.0209-1.7418c0.0127-0.30822 0.0754-0.37092 0.15986-0.15985 0.0764 0.191 0.067 0.4192-0.0209 0.50712-0.0879 0.08792-0.15045-0.06835-0.13897-0.34727zm-118.55-9.7109c-1.5279-0.77306-1.1873-3.3848 0.48948-3.753 1.8366-0.40339 3.1717 1.3189 2.3116 2.982-0.55231 1.0681-1.6286 1.3643-2.8011 0.77102zm-4.6661-4.29c0.08618-0.29104 0.56786-2.3354 1.0704-4.5431 1.0067-4.4222 2.0274-7.872 3.4897-11.795l0.96156-2.5793 0.73285 1.1556c0.40307 0.63557 1.1461 1.4708 1.6512 1.856l0.91831 0.70043-3.7975 11.751-1.0791 0.31244c-1.5382 0.44535-2.3263 1.0323-3.2738 2.4384-0.45658 0.67753-0.75965 0.99375-0.67347 0.7027zm118.51-9.8616c-0.8767-0.68894-1.2126-1.8107-0.86118-2.8757 0.37555-1.1379 1.167-1.6825 2.4452-1.6825 1.2925 0 1.9322 0.34623 2.4345 1.3176 0.60902 1.1777 0.49589 2.0664-0.37378 2.9361-0.61951 0.61951-1.0012 0.77223-1.9182 0.76751-0.67602-0.0035-1.383-0.19308-1.7266-0.46302zm8.459-2.1769c0-0.65484 0.0516-0.92273 0.11466-0.59531 0.0631 0.32742 0.0631 0.8632 0 1.1906s-0.11466 0.05953-0.11466-0.59531zm-103.43-6.8103-3.7422-2.0239-0.10921-1.5099c-0.06908-0.95498-0.37542-2.023-0.83357-2.906-0.69399-1.3376-0.70446-1.4144-0.2496-1.8316 0.26112-0.23949 1.5503-1.4387 2.8648-2.6649 1.3145-1.2262 3.713-3.4476 5.33-4.9365l2.94-2.707 1.909 1.7486-1.5721 7.2566c-0.86467 3.9911-1.7782 8.2389-2.0301 9.4394s-0.52701 2.1774-0.61137 2.1709c-0.08436-0.0066-1.8374-0.92269-3.8956-2.0358zm-12.859-0.25292c-1.0019-0.64285-1.6179-2.0331-1.4287-3.2243 0.21298-1.3407 1.6895-2.6771 2.9578-2.6771 2.0317 0 3.298 1.2401 3.298 3.2297 0 1.8115-0.98767 2.8829-2.7938 3.0306-0.93962 0.07687-1.5114-0.02407-2.0333-0.35895zm109.27 0.27338c0.1819-0.0734 0.47956-0.0734 0.66146 0s0.0331 0.13345-0.33073 0.13345c-0.3638 0-0.51263-0.06005-0.33073-0.13345zm-23.614-6.3035c-0.14552-0.05906-0.77735-0.23927-1.4041-0.40046-0.63175-0.16249-1.6129-0.72078-2.202-1.253-4.6654-4.2149-1.809-11.699 4.4688-11.709 4.9293-0.0077 8.1373 4.9744 6.0462 9.3901-0.72738 1.536-2.0198 2.8532-3.3371 3.401-0.98143 0.40814-3.128 0.7515-3.5719 0.57135zm-83.873-3.8401c-0.87312-0.0966-1.3196-0.19564-0.99219-0.2201 0.32742-0.02446 0.59531-0.13877 0.59531-0.25402 0-0.42372 2.7437-4.978 4.1206-6.8399 2.9555-3.9965 7.7351-8.4079 10.988-10.142l1.5112-0.80547-0.50468 1.3282c-0.34204 0.90017-0.50468 2.0027-0.50468 3.421v2.0928l-2.5707 2.3362c-1.4139 1.2849-4.2618 3.9137-6.3287 5.8419-2.2728 2.1202-3.9494 3.4882-4.2424 3.4613-0.26639-0.02446-1.1987-0.12351-2.0718-0.2201zm51.119-2.4474c-0.74773-0.55712-0.83757-1.8241-0.1879-2.65 1.3286-1.6891 3.9208-0.16764 3.1534 1.8509-0.15102 0.39722-0.41596 0.81212-0.58876 0.92199-0.49317 0.31359-1.8877 0.2415-2.3767-0.12286zm6.233-4.8101c-0.45437-0.64463-1.3098-1.4483-1.901-1.7859l-1.0748-0.61388-2e-3 -1.8972c-2e-3 -1.8605 0.0122-1.9003 0.734-2.0589 0.96828-0.21267 2.7312-1.3999 3.5548-2.3939 0.96225-1.1614 1.3256-1.925 1.7826-3.7459l0.40887-1.6292 3.5719 1.4264c3.6056 1.4399 11.692 5.3206 13.024 6.25 0.56791 0.39643 0.83424 0.44222 1.2568 0.21609 1.0203-0.54602 0.53078-0.05546-0.79088 0.79266-1.7564 1.1271-3.2735 2.8896-4.252 4.94l-0.79795 1.672h-14.688zm-36.095-3.4645c-1.7533-0.95232-2.3666-3.7127-1.2095-5.4446 2.2062-3.3024 7.1741-1.8068 7.1741 2.1599 0 1.4444-0.5475 2.4252-1.7698 3.1704-1.0136 0.61803-3.1597 0.67649-4.1948 0.11428zm71.989-0.58894-0.64143-0.7276 0.7276 0.64143c0.40019 0.35279 0.72761 0.68021 0.72761 0.7276 0 0.20751-0.21426 0.03862-0.81378-0.64143zm-13.474-2.712c0.21828-0.14106 0.51594-0.25648 0.66146-0.25648s0.086 0.11542-0.1323 0.25648c-0.21828 0.14106-0.51593 0.25648-0.66145 0.25648s-0.086-0.11542 0.13229-0.25648zm4.4318-0.98048c0.32742-0.06306 0.8632-0.06306 1.1906 0 0.32743 0.06306 0.0595 0.11466-0.59531 0.11466-0.65484 0-0.92273-0.0516-0.59531-0.11466zm-33.154-2.6984c-0.299-0.12902-0.92407-0.66788-1.3891-1.1975-0.7006-0.79794-0.84543-1.1812-0.84543-2.2375 0-2.9837 2.9936-4.8728 5.5604-3.5088 2.4584 1.3064 2.7982 4.4264 0.69346 6.3673-0.75569 0.69685-2.9957 1.0181-4.0194 0.57638zm-20.992-1.2145c-0.34834-0.5164-1.2115-1.3136-1.9182-1.7715-0.70668-0.45792-1.2849-0.86465-1.2849-0.90386 0-0.03921 0.20836-0.06008 0.46302-0.04637 0.25466 0.0137 1.8918-0.28645 3.638-0.66701 4.7622-1.0378 7.3179-1.44 12.171-1.9152 1.0186-0.09975 1.9616-0.24694 2.0955-0.32708 0.14193-0.08496 0.15586 0.06541 0.03342 0.36072-0.11549 0.27853-0.28829 0.858-0.38399 1.2877-0.17122 0.76878-0.27752 0.81205-6.648 2.7057-3.5607 1.0584-6.7121 1.99-7.0032 2.0701-0.39568 0.10893-0.68893-0.09117-1.1625-0.79323zm-7.1057-3.4911c0.25466-0.06655 0.67138-0.06655 0.92604 0 0.25466 0.06655 0.0463 0.121-0.46302 0.121-0.50932 0-0.71768-0.05445-0.46302-0.121zm29.501-6.872c0.1819-0.0734 0.47956-0.0734 0.66146 0s0.0331 0.13345-0.33073 0.13345c-0.3638 0-0.51263-0.06005-0.33073-0.13345z" fill="#f6fdfd"/><path d="m113.94 139.04c-2.5899-0.85062-4.6067-2.6478-5.8168-5.1835l-0.78301-1.6406-1.3964 0.10433c-0.76804 0.0574-2.69 0.18652-4.271 0.28696l-2.8746 0.18263-0.50214 1.3482c-1.0367 2.7834-3.5711 4.4653-6.7133 4.4552-4.0186-0.0129-6.7572-2.8408-6.7411-6.9612 0.01085-2.7793 1.3947-4.8579 4.0952-6.1513 2.0446-0.97922 3.6213-1.0032 5.5631-0.0846 1.52 0.71908 3.4663 2.6747 3.7376 3.7556 0.15186 0.60506 0.24028 0.6314 1.6476 0.49084 0.81793-0.0817 2.6778-0.2199 4.133-0.30714 3.4393-0.20617 3.483-0.22234 3.6981-1.3687 0.59584-3.1761 3.3048-5.8901 6.7594-6.7718l1.4488-0.36979 0.84587-5.3948c0.46523-2.9671 1.1041-6.8052 1.4197-8.5291l0.57384-3.1343 1.2261 0.1795c0.67436 0.0987 1.3253 0.27482 1.4465 0.39131 0.1212 0.1165-0.32529 3.6559-0.99218 7.8653-0.6669 4.2094-1.2116 7.9441-1.2104 8.2992 2e-3 0.47829 0.27197 0.79215 1.0427 1.2105l1.0405 0.56478 8.9669-11.046-0.39127-1.127c-0.89202-2.5693 0.90142-5.8087 3.631-6.5586 1.4578-0.40048 3.5648-0.0389 4.711 0.80857 1.8064 1.3355 2.5647 4.3445 1.5698 6.229-0.42477 0.80461-0.41944 0.82306 0.56933 1.9711l0.99811 1.1589 1.4255-0.59239c0.784-0.32582 2.0928-0.66215 2.9084-0.7474l1.483-0.155 4.0309-9.0171-0.658-0.782c-1.0307-1.2249-1.4852-2.5576-1.5082-4.4223-0.0267-2.1665 0.63978-3.7318 2.1796-5.1189 1.468-1.3224 2.5638-1.7602 4.4058-1.7602 2.1007 0 3.3835 0.45269 4.7892 1.69 1.5682 1.3804 2.1821 2.745 2.1895 4.867 9e-3 2.5634-1.1042 4.6756-3.1923 6.0575-0.81986 0.54255-1.4915 0.72147-3.189 0.84948l-2.1504 0.16217-1.6767 3.6702c-2.21 4.8373-2.1404 4.4785-0.97555 5.034 4.1651 1.9862 6.2997 6.9758 4.9432 11.555-1.25 4.2194-4.4235 6.793-8.7058 7.0601-4.0865 0.25495-7.3716-1.4168-9.6539-4.9128l-0.39687-0.60793-5.4639 1.8437c-3.0051 1.0141-5.6979 1.969-5.9839 2.122-0.31341 0.16774-0.58607 0.67635-0.68625 1.2801-0.26177 1.5776-1.3472 3.6351-2.5546 4.8426-1.6436 1.6436-3.6345 2.4614-6.2134 2.5521-1.1642 0.041-2.4143-0.0232-2.7781-0.14273zm-20.913-4.1602c0.63051-0.25227 1.2747-0.77314 1.5929-1.288 1.7977-2.9088-1.4493-6.3446-4.5034-4.7653-0.81301 0.42043-1.8415 2.1059-1.8415 3.0177 0 1.0864 0.87173 2.384 1.9651 2.9253 1.2997 0.64334 1.4407 0.64892 2.787 0.11026zm25.327-0.12242c1.5825-0.59792 3.2406-2.8833 3.2511-4.4811 0.0129-1.9638-1.4066-4.2313-3.0889-4.9342-2.407-1.0057-5.7492 0.44649-6.6765 2.9009-0.66223 1.7528-0.0908 4.3422 1.2196 5.5273 1.2555 1.1353 3.6974 1.5906 5.2947 0.98709zm30.714-7.5364c3.332-1.3922 4.4235-5.6461 2.1549-8.3983-1.9458-2.3606-5.3144-2.6864-7.8657-0.76077-2.4317 1.8354-2.5733 6.0616-0.27291 8.1474 1.5748 1.428 4.0044 1.8388 5.9838 1.0117zm-18.25-1.8146c2.7225-0.9322 5.138-1.7705 5.3676-1.863 0.29409-0.11835 0.49979-0.79053 0.69548-2.2727 0.17453-1.3219 0.55113-2.6447 1.0126-3.5569l0.7348-1.4523-1.1657-1.2608c-1.092-1.1812-1.2493-1.2608-2.4886-1.2608-0.72761 0-1.564-0.0888-1.8586-0.19734-0.45932-0.16921-1.1004 0.50427-4.4979 4.725-2.1792 2.7073-4.1223 5.1426-4.3179 5.4118-0.30756 0.42331-0.25867 0.68762 0.36178 1.9558 0.39457 0.80648 0.82741 1.4663 0.96185 1.4663 0.13445 0 2.472-0.76271 5.1945-1.6949zm5.1789-15.522c0.86165-0.67778 0.9108-1.7036 0.12185-2.5434-0.72018-0.7666-1.4624-0.77882-2.2519-0.0371-0.83583 0.78522-0.7997 1.8848 0.0848 2.5805 0.38343 0.3016 0.84362 0.54837 1.0227 0.54837 0.17903 0 0.63922-0.24677 1.0226-0.54837zm22.165-9.7247c1.5323-1.715 1.0942-4.1635-0.92432-5.1662-1.328-0.65969-2.6399-0.40028-3.7895 0.7493-0.71289 0.71289-0.87871 1.0859-0.87871 1.9766 0 2.2939 1.3145 3.5356 3.5562 3.3592 1.0558-0.0831 1.4474-0.25982 2.0363-0.91894zm-91.925 36.728c-0.40709-0.12228-1.3162-0.59193-2.0201-1.0437-2.2214-1.4255-3.4877-3.8022-3.5733-6.7068l-0.05309-1.8006-6.3179-4.2569c-6.1885-4.1697-6.3344-4.2502-7.1254-3.9287-2.4655 1.002-4.7079 0.95735-6.9523-0.13832-3.7593-1.8353-5.1385-6.5081-3.0303-10.267 0.8577-1.5291 2.7679-3.1206 4.2944-3.578 0.56206-0.1684 1.0973-0.42807 1.1893-0.57705 0.15417-0.24945 0.33791-2.7398 0.7717-10.459l0.16518-2.9395-0.77088-0.31931c-2.6324-1.0904-3.9772-4.8171-2.728-7.5599 0.68025-1.4936 2.4294-2.9962 3.7301-3.2042l1.0553-0.16875 1.9772-6.1158c1.7844-5.5195 1.9334-6.1394 1.5277-6.3583-0.994-0.53614-2.4151-2.3284-2.9234-3.6868-0.97652-2.61-0.28062-5.5242 1.8017-7.5451 1.4858-1.4419 3.2304-2.004 5.6746-1.8283l1.8767 0.13492 12.7-11.742 0.14855-2.5089c0.18221-3.0774 0.79383-4.4886 2.6805-6.1849 3.2946-2.9621 8.2737-2.5648 11.397 0.90956l1.2049 1.3402 4.7197-1.4142c2.5958-0.7778 5.7665-1.7008 7.0459-2.0511 2.0341-0.55692 2.3445-0.7202 2.4725-1.3004 0.64518-2.9248 2.4642-5.1599 4.8421-5.9497 1.8499-0.61445 4.722-0.45411 6.2934 0.35134 2.6641 1.3656 4.1139 3.744 4.1371 6.7869 0.025 3.2811-1.863 6.109-4.8577 7.2759l-1.1906 0.46393-0.0768 1.9878-0.0767 1.9878 1.3191 0.81166c0.78875 0.48533 1.5642 1.2409 1.9288 1.8793l0.60972 1.0676 15.089 4e-3 0.88393-1.8972c1.1657-2.502 2.9961-4.3215 5.6839-5.6499 1.8242-0.90159 2.3492-1.0367 4.4096-1.1352 1.8566-0.08877 2.7179 0.0033 4.1777 0.44673 5.6253 1.7086 9.1104 7.5285 8.0157 13.385-1.374 7.3501-8.5692 11.371-15.81 8.835l-1.627-0.56989-0.78598 0.89943c-0.4323 0.49468-1.3411 1.5517-2.0197 2.349s-1.3792 1.531-1.5571 1.6305c-0.5573 0.31188-2.0261-0.49415-2.3229-1.2747-0.36585-0.96225-0.0954-1.5253 1.8797-3.9131 0.86771-1.049 1.5776-1.9844 1.5776-2.0786s-0.35584-0.74966-0.79075-1.4565c-0.98742-1.6048-1.5667-3.2129-1.8038-5.0073l-0.18359-1.3897-14.776-0.061-0.60771 1.1958c-1.1868 2.3352-3.3003 3.4324-5.9588 3.0933-2.806-0.35788-4.906-3.031-4.6649-5.9379 0.16575-1.9987 1.2788-3.7472 2.9245-4.5941l1.2544-0.64554v-4.1198l-0.77337-0.16986c-1.335-0.29322-3.0263-1.6278-3.9895-3.1481-0.50914-0.80364-1.0637-1.4669-1.2323-1.4739-0.3993-0.01656-5.9346 1.5805-10.177 2.9362l-3.3394 1.0672-0.15173 1.2811c-0.2017 1.7031-1.0299 3.2941-2.5074 4.8169-0.66741 0.68787-1.128 1.3361-1.0236 1.4406 0.23618 0.23618-2.5302 1.1246-2.7958 0.89786-0.38627-0.32983-2.2824 0.03026-2.4493 0.46514-0.09081 0.23665-1.0501 4.5409-2.1317 9.5651s-2.0936 9.587-2.2489 10.14c-0.30924 1.1006-1.5058 2.0352-2.6081 2.0369-0.34914 5.44e-4 -2.6362-1.0706-5.0824-2.3803s-4.5197-2.3812-4.6078-2.3812c-0.08812 0-0.43782 0.3299-0.7771 0.73312-0.7698 0.91486-2.752 1.9227-4.1504 2.1102-1.2535 0.16813-1.0156-0.32341-3.255 6.7253l-1.653 5.203 1.122 0.93791c1.2772 1.0676 1.9728 2.7093 1.9728 4.6561 0 1.8549-1.315 3.8883-3.0782 4.7598l-1.3584 0.67142-0.17086 2.249c-0.94281 12.409-1.0194 11.137 0.72986 12.125 1.3019 0.73473 2.2847 1.6698 2.9516 2.8082 0.24685 0.42138 0.35026 0.4149 1.5433-0.0968 1.5408-0.66092 1.4994-0.65822 1.4994-0.0981 0 0.24773 0.3587 0.82051 0.79711 1.2728l0.79711 0.82241-1.5247 0.61958c-2.0239 0.82241-2.0979 0.89516-2.2458 2.2074-0.07011 0.62198-0.34233 1.5837-0.60495 2.1371-0.27517 0.57987-0.37381 1.0798-0.2328 1.18 0.13458 0.0956 2.7815 1.8776 5.882 3.96l5.6373 3.7862 1.191-1.0978c1.6721-1.5413 3.2863-2.2087 5.385-2.2266 0.94589-8e-3 2.0314 0.0729 2.4122 0.17999 0.68068 0.19135 0.73912 0.0958 3.4396-5.6224l2.7471-5.8171 1.3229 0.1652c0.7276 0.0909 1.4293 0.26276 1.5594 0.38201 0.13558 0.12432-0.07789 0.87223-0.50036 1.7531-1.914 3.9907-4.8955 10.49-4.8955 10.672 0 0.11183 0.41283 0.8168 0.9174 1.5666 1.1155 1.6577 1.4604 2.8196 1.4624 4.9266 0.0022 2.4302-0.63872 3.9674-2.3816 5.7122-1.1402 1.1414-1.8331 1.5979-2.9119 1.9182-1.5034 0.44648-4.1391 0.52142-5.367 0.1526zm4.8439-4.0317c1.4164-0.96397 1.9369-1.8738 2.0416-3.5683 0.07578-1.2264-0.0255-1.731-0.51742-2.5778-1.1264-1.9391-3.8745-2.8326-5.7419-1.867-1.7285 0.89382-2.8609 3.1896-2.5062 5.0807 0.19103 1.0183 1.6947 2.9046 2.6118 3.2763 1.1167 0.45269 3.1973 0.27869 4.1121-0.34387zm-25.264-17.136c1.8884-1.1671 2.2872-4.2446 0.75851-5.8527-0.92302-0.97096-1.9794-1.5536-2.8026-1.5457-1.0845 0.0104-2.8256 0.98753-3.3801 1.897-0.6393 1.0486-0.71162 3.0748-0.14862 4.1635 0.91754 1.7743 3.7618 2.4571 5.5729 1.3378zm0.49252-28.03c0.87705-0.33345 1.5669-1.6825 1.3546-2.6491-0.2151-0.97932-0.91266-1.5835-2.0394-1.7663-1.2066-0.19581-2.2823 0.697-2.5019 2.0767-0.13478 0.84667-0.04639 1.0895 0.65004 1.7859 0.84547 0.84547 1.4312 0.97311 2.5366 0.55281zm21.696-23.493c0.24725-1.2733 0.85468-4.1606 1.3498-6.4161 1.687-7.6848 2.2951-10.629 2.2045-10.672-0.04979-0.02393-0.52812-0.44648-1.063-0.93899l-0.97243-0.89548-2.7168 2.483c-2.4029 2.1961-6.9111 6.3853-8.6501 8.0381l-0.61763 0.58699 0.7267 1.3898c0.44326 0.84772 0.78736 2.0119 0.88222 2.9848l0.15551 1.595 3.8365 2.0726c2.1101 1.1399 3.9667 2.076 4.1258 2.0801 0.15916 0.0042 0.49168-1.0342 0.73893-2.3075zm-13.414-0.68966c0.74911-0.81742 0.87631-1.1494 0.87631-2.2869 0-1.1353-0.12761-1.4699-0.86898-2.2789-1.6589-1.8102-4.5421-1.3963-5.5851 0.80172-0.5399 1.1377-0.53603 1.8248 0.0168 2.9898 0.6482 1.366 1.7769 1.9819 3.3782 1.8435 1.0905-0.09428 1.4514-0.27105 2.1828-1.0692zm85.146-5.9794c2.2667-0.9828 4.0937-3.7716 4.0984-6.256 5e-3 -2.4844-1.0761-4.4697-3.2355-5.9434-1.0572-0.7214-1.5581-0.87548-3.186-0.97994-2.4814-0.15924-4.2324 0.52981-5.7619 2.2674-3.6446 4.1405-1.4671 10.233 4.1162 11.517 0.84499 0.19427 2.8201-0.10666 3.9688-0.6047zm-33.739-5.7754c0.89639-0.72586 0.85102-2.3251-0.0889-3.1336-1.5018-1.2918-3.6105-0.27076-3.6105 1.7483 0 1.5088 2.4254 2.417 3.6994 1.3853zm-28.571-8.1266c2.7126-1.4027 2.969-5.2729 0.46755-7.057-1.1655-0.83126-3.531-0.86761-4.5984-0.07066-1.2502 0.93339-1.7698 1.8584-1.8799 3.3461-0.12179 1.6465 0.46604 2.8117 1.8417 3.6504 1.0423 0.63552 3.0703 0.69931 4.1691 0.13114zm29.372-7.3425c1.303-0.88682 1.9095-1.8632 2.0422-3.2876 0.13265-1.4238-0.47151-2.6003-1.8659-3.6334-1.0359-0.76755-3.2909-0.76755-4.3268 0-1.9866 1.472-2.5327 3.8719-1.2954 5.6927 1.2274 1.8062 3.7581 2.377 5.4459 1.2283zm-42.215 79.051c-1.927-2.0432-3.5531-6.522-4.1114-11.324-1.5646-13.458 5.7198-27.944 18.227-36.246 7.7354-5.1349 17.984-7.9913 25.369-7.0706 7.4399 0.92756 12.36 3.2354 16.796 7.8785 3.4249 3.5848 5.3988 6.9081 8.1272 13.683 1.9969 4.9586 3.2235 6.4457 5.797 7.0285 1.2978 0.29391 2.532-0.165 3.5884-1.3343 1.9617-2.1713 2.2283-5.8166 0.83247-11.383-0.38316-1.528-0.76199-3.552-0.84183-4.4979-0.12648-1.4983-0.0708-1.8135 0.43263-2.4474 0.5095-0.6416 0.75535-0.72714 2.08-0.72369 3.764 0.0098 7.7199 1.7262 7.7199 3.3495 0 0.46913-0.14743 0.61534-0.62045 0.61534-1.4768 0-1.8893 1.9386-1.0979 5.1594 0.63943 2.6022 0.78252 7.0905 0.2983 9.357-0.86426 4.0455-3.5438 7.993-6.7405 9.9301-2.1562 1.3066-4.4764 2.0047-7.2672 2.1866-7.8354 0.51069-16.876-4.7985-20.579-12.085-0.47214-0.92912-0.91335-2.2608-0.98047-2.9592-0.0671-0.69843-0.23141-1.2699-0.36511-1.2699s-0.5341 0.62508-0.88979 1.3891c-0.50646 1.0878-0.64726 1.826-0.64929 3.404-2e-3 1.7867 0.10515 2.2303 0.94845 3.916 0.52306 1.0455 1.1779 2.0427 1.4552 2.2159 0.84941 0.53047 0.5591 0.75909-0.35572 0.28013-0.52142-0.27299-1.7085-0.49646-3.0157-0.56772-1.8811-0.10255-2.3378-0.03422-3.584 0.5363-1.9747 0.90406-3.2374 2.0917-4.1035 3.8595-0.68165 1.3914-0.73636 1.7398-0.73462 4.6783 2e-3 3.6926 0.28991 4.863 2.2919 9.3224 1.3583 3.0257 1.4537 3.7745 0.4806 3.7745-1.4025 0-3.7358-1.4574-8.8273-5.5138-7.1876-5.7263-11.851-7.9537-16.764-8.0063-3.492-0.0374-5.5731 0.76605-8.0133 3.0936-2.33 2.2225-3.4274 4.9369-3.4332 8.4926-0.0017 1.0464-0.12794 1.9797-0.28047 2.074-0.15253 0.0943-0.6875-0.26351-1.1888-0.79507zm33.384-20.121c1.6416-0.80315 2.8404-2.2324 3.3029-3.9377 0.60212-2.2201-0.18843-5.5408-1.789-7.5149-0.48616-0.59958-0.4908-0.58182-0.4908 1.8758 0 2.2995-0.05856 2.5758-0.80001 3.7747-0.44 0.71146-1.3139 1.6544-1.9419 2.0955-1.0815 0.75952-1.2771 0.80175-3.6979 0.79855-2.1569-0.0029-2.7356-0.09873-3.7068-0.61411-1.5413-0.818-3.3656-2.5337-4.1903-3.9408-0.83042-1.417-1.6704-4.0516-1.6704-5.2392 0-0.48777-0.11906-0.96044-0.26458-1.0504-0.40713-0.25162-0.31836 3.7431 0.11976 5.3892 0.63591 2.3892 1.7238 4.1959 3.5818 5.9487 2.6752 2.5237 4.9181 3.4134 8.1545 3.235 1.4053-0.0775 2.3331-0.30181 3.3927-0.82023zm38.462-1.5709c0.65485-0.23273 1.4579-0.62806 1.7846-0.87852 0.5743-0.44034 0.52187-0.4525-1.5875-0.36828-5.5546 0.22177-11.066-2.3924-17.234-8.1736-2.3404-2.1939-2.4083-2.0423-0.63018 1.4063 2.0093 3.897 6.968 7.6545 11.058 8.3793 1.9152 0.3394 5.1253 0.16202 6.6087-0.36517zm-28.644-14.855c0.91125-0.66405 1.923-2.6007 1.9153-3.6662-3e-3 -0.44211-0.22836-1.2939-0.50037-1.8929-2.0292-4.4684-8.4694-3.0188-8.4853 1.9098-5e-3 1.5717 0.67578 2.7801 2.1186 3.7602 0.78017 0.52997 1.1703 0.60936 2.5705 0.5231 1.1096-0.06835 1.8902-0.27618 2.3812-0.63398zm37.202-7.5263c0.55935-0.1593 0.9526-0.35404 0.87389-0.43274-0.0787-0.07871-1.1317-0.28515-2.3399-0.45875-3.3152-0.47634-4.2269-0.14327-2.5275 0.92333 0.90879 0.57039 1.9069 0.56244 3.9936-0.03183zm12.323 6.032c-2.4866-1.0561-4.1893-4.0713-3.8616-6.8383 0.65629-5.5413 7.3483-7.7166 11.211-3.6443 2.9244 3.0827 1.7982 8.5125-2.1037 10.142-1.8265 0.76296-3.9296 0.89934-5.2461 0.3402zm4.2303-3.757c1.5907-0.82257 1.7311-3.2561 0.25942-4.4944-2.3006-1.9358-5.7763 0.38675-4.6419 3.1018 0.21007 0.50278 0.65915 1.1083 0.99794 1.3456 0.76366 0.53489 2.3972 0.5576 3.3845 0.04706z" fill="#1c4d64"/></g></svg>
